<svg xmlns="http://www.w3.org/2000/svg" viewBox="0 0 600 187.09"><defs><style>.cls-1{fill:#1e50a2;fill-rule:evenodd;}</style></defs><title>アセット 2</title><g id="レイヤー_2" data-name="レイヤー 2"><g id="Layer_1" data-name="Layer 1"><path class="cls-1" d="M4.59,133.68C-3.86,115-.11,94.38,11.51,79,18,70.34,24.24,66.38,33.07,60.87c1.75-12.56-2.61-21.17-15.16-34.14,24.49.38,39.56,7,53.34,22.73a74.63,74.63,0,0,1,10.15.42l5.93-13.61c3.94-9.05,31.15,1.85,37.13,4.24C118,35.81,87,22.07,83.23,33.67l-24-18,39.3-.93a80.31,80.31,0,0,0-29.36-11A56.77,56.77,0,0,0,41.06,6.43L34.3,16a1.52,1.52,0,1,1-2.49-1.75l3.94-5.56c-1.53.73-3,1.55-4.53,2.44a1.52,1.52,0,0,1-1.56-2.61C31,7.71,32.42,7,33.81,6.26H27.49a1.52,1.52,0,1,1,0-3l13.06.17A60,60,0,0,1,69.66.7c11.53,1.71,23.16,6.5,34.39,13.91l21.33-.5,42.4,40.5-32.64-1c-1.26,2.82-2.53,5.76-3.8,8.7a81.92,81.92,0,0,0-23.07-5.82c18,7.38,34.8,16,48.16,30.76,7.41,8.2-6.42,21-24.71,26.25-14.81,4.21-32.54,1.34-46.81-3.57-7.83,5.44-23.84,9-38.21,8.66,8-5,10.29-8.77,9.92-13.84-16.63-1.26-34.92,5.93-38,24.57,4.25-6.2,7.53-9.31,10.45-10.42-3.8,12.74-2.23,25.73,11.91,32.68,4.08-18.18,20.7-27.75,38.73-26.24-30.11,10.62-34,49.27-12.83,61.75-21.75-1.28-26.18-17.83-27.12-20.69-12.22-3.73-26-13.56-29.29-25.69-.22-7.85.14-12.27,3.32-19.69,13.83-32.31,51.69-26.19,80.33-16.2,12.08,4.21,19.49,5.29,31.76,3.3C118.3,93.83,101.8,80.76,83.82,75.7A61.67,61.67,0,0,1,89.34,63c-5.64,3.81-10,10-10.67,16.86a23.23,23.23,0,0,0-.12,4.32c-5.93-6.59-1.34-15.43,2.39-21.95A23.63,23.63,0,0,0,70.23,79.48a10.33,10.33,0,0,1-1.45-8c-34.89-4-68,32.87-64.19,62.2ZM114.35,74.94a3.73,3.73,0,1,0,3.74,3.73A3.73,3.73,0,0,0,114.35,74.94Z"/><path class="cls-1" d="M224.31,113a35.8,35.8,0,0,1-1.86,12.25,20.85,20.85,0,0,1-5.37,8.3,21.51,21.51,0,0,1-8.5,4.71,41.39,41.39,0,0,1-11.92,1.51H184.25A3.28,3.28,0,0,1,182,139a3.18,3.18,0,0,1-.91-2.55V91.14a3.18,3.18,0,0,1,.91-2.55,3.28,3.28,0,0,1,2.23-.78h13.33a37.46,37.46,0,0,1,11.8,1.63,21.4,21.4,0,0,1,8.16,4.81,21,21,0,0,1,5,7.9A31.35,31.35,0,0,1,224.31,113Zm-10.94.37a26,26,0,0,0-.87-6.87,14.34,14.34,0,0,0-2.77-5.48,12.88,12.88,0,0,0-4.89-3.64,20.09,20.09,0,0,0-7.86-1.3h-5.34v35.3h5.5a20.69,20.69,0,0,0,7.31-1.12,12.22,12.22,0,0,0,5-3.39,14.86,14.86,0,0,0,3-5.64A28,28,0,0,0,213.37,113.41Z"/><path class="cls-1" d="M263.87,119.49a3.89,3.89,0,0,1-.82,2.73,3,3,0,0,1-2.28.89H238.94a14.5,14.5,0,0,0,.55,4.14,7.86,7.86,0,0,0,1.71,3.16,7.61,7.61,0,0,0,3.06,2,13.16,13.16,0,0,0,4.47.69,24.66,24.66,0,0,0,4.66-.39,29.44,29.44,0,0,0,3.47-.85c1-.31,1.79-.59,2.43-.85a4.44,4.44,0,0,1,1.56-.38,1.2,1.2,0,0,1,.61.13,1.14,1.14,0,0,1,.41.51,3.56,3.56,0,0,1,.22,1c0,.44.05,1,.05,1.66s0,1.09,0,1.5a8.48,8.48,0,0,1-.12,1.06,2.49,2.49,0,0,1-.23.74,2.61,2.61,0,0,1-.43.59,5.19,5.19,0,0,1-1.43.77,22.72,22.72,0,0,1-3,1,40.74,40.74,0,0,1-4.13.82,33.9,33.9,0,0,1-5,.36,26.21,26.21,0,0,1-8.38-1.21,14.8,14.8,0,0,1-6-3.65,15.31,15.31,0,0,1-3.6-6.18,29.5,29.5,0,0,1-1.18-8.77,27.88,27.88,0,0,1,1.25-8.61,17.8,17.8,0,0,1,3.62-6.5,15.46,15.46,0,0,1,5.76-4.07,22.21,22.21,0,0,1,15.36-.08,13.76,13.76,0,0,1,5.25,3.67,15,15,0,0,1,3,5.57,24,24,0,0,1,1,7v1.61Zm-9.79-2.88a10.37,10.37,0,0,0-1.71-6.69,6.58,6.58,0,0,0-5.65-2.45,7.34,7.34,0,0,0-3.36.73,6.81,6.81,0,0,0-2.39,2,8.8,8.8,0,0,0-1.44,2.89,14.26,14.26,0,0,0-.59,3.57Z"/><path class="cls-1" d="M303.69,119.49a3.89,3.89,0,0,1-.82,2.73,3,3,0,0,1-2.28.89H278.76a14.5,14.5,0,0,0,.55,4.14,8,8,0,0,0,1.71,3.16,7.61,7.61,0,0,0,3.06,2,13.16,13.16,0,0,0,4.47.69,24.66,24.66,0,0,0,4.66-.39,29,29,0,0,0,3.47-.85c1-.31,1.79-.59,2.43-.85a4.43,4.43,0,0,1,1.57-.38,1.19,1.19,0,0,1,.6.13,1.14,1.14,0,0,1,.41.51,3.56,3.56,0,0,1,.22,1c0,.44,0,1,0,1.66s0,1.09,0,1.5a8.48,8.48,0,0,1-.12,1.06,2.49,2.49,0,0,1-.23.74,2.61,2.61,0,0,1-.43.59,5.24,5.24,0,0,1-1.42.77,23.44,23.44,0,0,1-3,1,40.74,40.74,0,0,1-4.13.82,33.9,33.9,0,0,1-5,.36,26.21,26.21,0,0,1-8.38-1.21,14.87,14.87,0,0,1-6-3.65,15.31,15.31,0,0,1-3.6-6.18,29.5,29.5,0,0,1-1.18-8.77,27.88,27.88,0,0,1,1.25-8.61,17.94,17.94,0,0,1,3.62-6.5,15.46,15.46,0,0,1,5.76-4.07,22.21,22.21,0,0,1,15.36-.08,13.88,13.88,0,0,1,5.26,3.67,15.08,15.08,0,0,1,3,5.57,24,24,0,0,1,1,7v1.61Zm-9.79-2.88a10.37,10.37,0,0,0-1.71-6.69c-1.22-1.64-3.1-2.45-5.65-2.45a7.34,7.34,0,0,0-3.36.73,6.81,6.81,0,0,0-2.39,2,8.8,8.8,0,0,0-1.44,2.89,14.26,14.26,0,0,0-.59,3.57Z"/><path class="cls-1" d="M346.48,120a33.49,33.49,0,0,1-1,8.61,19.36,19.36,0,0,1-3,6.53,13.46,13.46,0,0,1-4.89,4.14,15,15,0,0,1-6.7,1.44,12.84,12.84,0,0,1-2.87-.3,11.63,11.63,0,0,1-2.53-.92A17.3,17.3,0,0,1,323,138a30.76,30.76,0,0,1-2.48-2.17v16.87a1.22,1.22,0,0,1-.25.73,1.76,1.76,0,0,1-.82.53,6.85,6.85,0,0,1-1.54.34,23.25,23.25,0,0,1-4.91,0,6.85,6.85,0,0,1-1.54-.34,1.76,1.76,0,0,1-.82-.53,1.22,1.22,0,0,1-.25-.73V102.58a1.23,1.23,0,0,1,.21-.7,1.36,1.36,0,0,1,.7-.51,6.17,6.17,0,0,1,1.33-.3,16.83,16.83,0,0,1,2.06-.1,16.52,16.52,0,0,1,2,.1,6.31,6.31,0,0,1,1.33.3,1.5,1.5,0,0,1,.7.51,1.31,1.31,0,0,1,.2.71v4.23a34,34,0,0,1,3.07-2.83,18.72,18.72,0,0,1,3.06-2,14.91,14.91,0,0,1,3.24-1.24,15.51,15.51,0,0,1,3.55-.39,13.61,13.61,0,0,1,6.71,1.55,12.77,12.77,0,0,1,4.51,4.23,19,19,0,0,1,2.55,6.27,35,35,0,0,1,.8,7.63Zm-10.54.7a27,27,0,0,0-.34-4.39,12.78,12.78,0,0,0-1.17-3.75,7.06,7.06,0,0,0-2.15-2.62,5.55,5.55,0,0,0-3.34-1,6.4,6.4,0,0,0-2,.3,7.33,7.33,0,0,0-2,1,13.75,13.75,0,0,0-2.09,1.75,23.75,23.75,0,0,0-2.29,2.69V126.5a23.66,23.66,0,0,0,4,4.12,6.52,6.52,0,0,0,4,1.46,5.51,5.51,0,0,0,3.34-1,7.68,7.68,0,0,0,2.26-2.62,13.24,13.24,0,0,0,1.31-3.68A19.56,19.56,0,0,0,335.94,120.7Z"/><path class="cls-1" d="M395.48,124.21a16.06,16.06,0,0,1-1.52,7.2,15.14,15.14,0,0,1-4.14,5.15,18.53,18.53,0,0,1-6.12,3.12,25.86,25.86,0,0,1-7.48,1,26.29,26.29,0,0,1-5-.45,28.26,28.26,0,0,1-4.07-1.09,17.58,17.58,0,0,1-3-1.31,10,10,0,0,1-1.71-1.22,3.23,3.23,0,0,1-.74-1.53,13.49,13.49,0,0,1-.22-2.82c0-.84,0-1.52.08-2.09a6.69,6.69,0,0,1,.26-1.37,1.7,1.7,0,0,1,.48-.74,1.18,1.18,0,0,1,.72-.22,3.33,3.33,0,0,1,1.59.67,26.86,26.86,0,0,0,2.63,1.47,23.22,23.22,0,0,0,3.85,1.47,17.87,17.87,0,0,0,5.17.67,12.24,12.24,0,0,0,3.46-.45,8.08,8.08,0,0,0,2.61-1.3,5.72,5.72,0,0,0,1.63-2.08,6.62,6.62,0,0,0,.56-2.75,4.83,4.83,0,0,0-1-3,9.38,9.38,0,0,0-2.52-2.25,24.7,24.7,0,0,0-3.53-1.85c-1.3-.58-2.66-1.18-4.06-1.83a35.3,35.3,0,0,1-4.06-2.19,16.19,16.19,0,0,1-3.52-2.92,13.61,13.61,0,0,1-2.52-4.05,14.4,14.4,0,0,1-1-5.58,14.87,14.87,0,0,1,1.39-6.57,13.57,13.57,0,0,1,3.73-4.69,16.08,16.08,0,0,1,5.54-2.8A25.46,25.46,0,0,1,387,88,20.55,20.55,0,0,1,389.83,89a7.14,7.14,0,0,1,1.65,1,2.87,2.87,0,0,1,.53.68,3.12,3.12,0,0,1,.25.75,7.49,7.49,0,0,1,.14,1.17c0,.46,0,1,0,1.74s0,1.42-.06,2a8,8,0,0,1-.2,1.33,1.6,1.6,0,0,1-.4.75,1,1,0,0,1-.71.25,3.41,3.41,0,0,1-1.4-.56c-.65-.37-1.44-.78-2.37-1.24A24.43,24.43,0,0,0,384,95.68a14,14,0,0,0-4.06-.55,9.42,9.42,0,0,0-3,.43,6.09,6.09,0,0,0-2.14,1.16,4.47,4.47,0,0,0-1.29,1.79,5.71,5.71,0,0,0-.43,2.2,4.81,4.81,0,0,0,.95,3,9.1,9.1,0,0,0,2.54,2.27,28,28,0,0,0,3.6,1.83c1.33.58,2.7,1.2,4.1,1.83a37.59,37.59,0,0,1,4.1,2.19,17.08,17.08,0,0,1,3.6,2.94,13.6,13.6,0,0,1,2.53,4A13.83,13.83,0,0,1,395.48,124.21Z"/><path class="cls-1" d="M428.41,132.74c0,.7,0,1.27-.06,1.75a10.07,10.07,0,0,1-.16,1.2,3.77,3.77,0,0,1-.25.78,3.1,3.1,0,0,1-.62.76,9.05,9.05,0,0,1-1.64,1.13,16.46,16.46,0,0,1-2.66,1.19,20.55,20.55,0,0,1-3.23.84,20.9,20.9,0,0,1-10.93-1,13.71,13.71,0,0,1-5.37-3.8,16.72,16.72,0,0,1-3.27-6.14,28.29,28.29,0,0,1-1.11-8.29,28.94,28.94,0,0,1,1.35-9.31,17.86,17.86,0,0,1,3.75-6.5,15.27,15.27,0,0,1,5.71-3.83,20.3,20.3,0,0,1,7.24-1.24,17.41,17.41,0,0,1,3.15.28,18.09,18.09,0,0,1,2.9.76,16.28,16.28,0,0,1,2.4,1.08,7.32,7.32,0,0,1,1.51,1.06,4,4,0,0,1,.63.74,2.94,2.94,0,0,1,.27.78,10,10,0,0,1,.17,1.19c0,.48.05,1.05.05,1.72a9.08,9.08,0,0,1-.4,3.29c-.27.63-.61,1-1,1a2.55,2.55,0,0,1-1.45-.57c-.51-.37-1.11-.79-1.81-1.25a13.32,13.32,0,0,0-2.48-1.24,9.64,9.64,0,0,0-3.46-.57,6.9,6.9,0,0,0-6,3c-1.38,2-2.08,5-2.08,8.9a22.87,22.87,0,0,0,.52,5.1,11.15,11.15,0,0,0,1.55,3.69,6.62,6.62,0,0,0,2.57,2.23,8.18,8.18,0,0,0,3.6.74,9.16,9.16,0,0,0,3.6-.63,15.39,15.39,0,0,0,2.63-1.38c.74-.51,1.37-1,1.89-1.39a2.21,2.21,0,0,1,1.28-.63.88.88,0,0,1,.6.21,1.31,1.31,0,0,1,.38.74,8.25,8.25,0,0,1,.22,1.4A21.31,21.31,0,0,1,428.41,132.74Z"/><path class="cls-1" d="M468.39,138.46a1,1,0,0,1-.25.69,1.6,1.6,0,0,1-.79.51,7,7,0,0,1-1.56.3,23.78,23.78,0,0,1-2.43.1,24.18,24.18,0,0,1-2.48-.1,7.05,7.05,0,0,1-1.57-.3,1.6,1.6,0,0,1-.79-.51,1,1,0,0,1-.25-.69V118a16.93,16.93,0,0,0-.38-4.1,7.83,7.83,0,0,0-1.1-2.55,4.9,4.9,0,0,0-1.87-1.66,5.73,5.73,0,0,0-2.66-.58,6.67,6.67,0,0,0-3.89,1.41,21.54,21.54,0,0,0-4.09,4.09v23.84a1.07,1.07,0,0,1-.24.69,1.64,1.64,0,0,1-.83.51,6.87,6.87,0,0,1-1.53.3,23.89,23.89,0,0,1-2.46.1,23.55,23.55,0,0,1-2.45-.1,7,7,0,0,1-1.54-.3,1.57,1.57,0,0,1-.82-.51,1,1,0,0,1-.25-.69V85.59a1.13,1.13,0,0,1,.25-.73,1.58,1.58,0,0,1,.82-.53,6.19,6.19,0,0,1,1.54-.35,20.46,20.46,0,0,1,2.45-.12,20.76,20.76,0,0,1,2.46.12,6.09,6.09,0,0,1,1.53.35,1.66,1.66,0,0,1,.83.53,1.23,1.23,0,0,1,.24.73v19.83a19.31,19.31,0,0,1,5.32-3.84,13.26,13.26,0,0,1,5.65-1.26,14.09,14.09,0,0,1,6.17,1.2,10.82,10.82,0,0,1,4.06,3.29,13.62,13.62,0,0,1,2.23,4.89,29.2,29.2,0,0,1,.68,6.77Z"/><path class="cls-1" d="M512.92,120.16a27.17,27.17,0,0,1-1.21,8.35,17.66,17.66,0,0,1-3.66,6.5,16.22,16.22,0,0,1-6.15,4.23,23.26,23.26,0,0,1-8.64,1.48,23.54,23.54,0,0,1-8.32-1.33,14.87,14.87,0,0,1-5.87-3.86,15.9,15.9,0,0,1-3.46-6.22,29,29,0,0,1-1.12-8.44,27.27,27.27,0,0,1,1.22-8.36A17.49,17.49,0,0,1,479.4,106a16.6,16.6,0,0,1,6.13-4.19,22.86,22.86,0,0,1,8.61-1.48,24.45,24.45,0,0,1,8.37,1.3,14.65,14.65,0,0,1,5.84,3.84,15.86,15.86,0,0,1,3.44,6.23,28.67,28.67,0,0,1,1.13,8.47Zm-10.37.4a25.47,25.47,0,0,0-.43-4.88,10.91,10.91,0,0,0-1.44-3.88,7.11,7.11,0,0,0-2.67-2.58,8.66,8.66,0,0,0-4.23-.92,9,9,0,0,0-4,.82,7.17,7.17,0,0,0-2.78,2.41,11.26,11.26,0,0,0-1.63,3.82,20.65,20.65,0,0,0-.55,5.08,25.54,25.54,0,0,0,.44,4.89,12.13,12.13,0,0,0,1.44,3.88,6.71,6.71,0,0,0,2.68,2.55,8.88,8.88,0,0,0,4.2.9,9,9,0,0,0,4-.82,7.21,7.21,0,0,0,2.79-2.38,11.34,11.34,0,0,0,1.62-3.8A23,23,0,0,0,502.55,120.56Z"/><path class="cls-1" d="M529.46,138.46a1.07,1.07,0,0,1-.24.69,1.6,1.6,0,0,1-.83.51,6.87,6.87,0,0,1-1.53.3,30.19,30.19,0,0,1-4.91,0,7.1,7.1,0,0,1-1.54-.3,1.57,1.57,0,0,1-.82-.51,1,1,0,0,1-.25-.69V85.59a1.13,1.13,0,0,1,.25-.73,1.58,1.58,0,0,1,.82-.53A6.29,6.29,0,0,1,522,84a25.17,25.17,0,0,1,4.91,0,6.09,6.09,0,0,1,1.53.35,1.61,1.61,0,0,1,.83.53,1.18,1.18,0,0,1,.24.73Z"/><path class="cls-1" d="M568.48,138.58a1.1,1.1,0,0,1-.4.88,2.75,2.75,0,0,1-1.28.46,16.3,16.3,0,0,1-2.56.14,16.71,16.71,0,0,1-2.64-.14,2.17,2.17,0,0,1-1.16-.46,1.15,1.15,0,0,1-.34-.88v-2.85a16.52,16.52,0,0,1-5.05,3.67,14.65,14.65,0,0,1-6.28,1.32,17.79,17.79,0,0,1-5.24-.74,12,12,0,0,1-4.13-2.21,10.1,10.1,0,0,1-2.71-3.63,12.31,12.31,0,0,1-1-5.06,11.53,11.53,0,0,1,1.22-5.45,10.08,10.08,0,0,1,3.66-3.83,18.15,18.15,0,0,1,6-2.22,43.18,43.18,0,0,1,8.38-.72h3.5v-2.17a11.36,11.36,0,0,0-.34-3,5,5,0,0,0-1.13-2.12,4.63,4.63,0,0,0-2.08-1.24,11.42,11.42,0,0,0-3.23-.4,16.76,16.76,0,0,0-4.51.56,25.76,25.76,0,0,0-3.51,1.25c-1,.45-1.86.88-2.55,1.25a3.75,3.75,0,0,1-1.66.56,1.25,1.25,0,0,1-.78-.27,2,2,0,0,1-.56-.81,6.11,6.11,0,0,1-.35-1.29,10.88,10.88,0,0,1-.12-1.68,7.34,7.34,0,0,1,.21-2,2.92,2.92,0,0,1,.75-1.3,7.49,7.49,0,0,1,2-1.28,22.34,22.34,0,0,1,3.29-1.3,28.78,28.78,0,0,1,4.11-1,26.89,26.89,0,0,1,4.61-.38,27.47,27.47,0,0,1,7.21.82,12,12,0,0,1,4.91,2.54,9.76,9.76,0,0,1,2.83,4.4,20.44,20.44,0,0,1,.88,6.38v24.12Zm-10-15.39h-3.85a20.67,20.67,0,0,0-4.17.36,7.7,7.7,0,0,0-2.82,1.1,4.33,4.33,0,0,0-1.57,1.74,5,5,0,0,0-.51,2.34,4.51,4.51,0,0,0,1.43,3.54,5.64,5.64,0,0,0,4,1.29,7.39,7.39,0,0,0,3.9-1.08,16.36,16.36,0,0,0,3.64-3.19Z"/><path class="cls-1" d="M600,105.93c0,1,0,1.75-.08,2.37a8.17,8.17,0,0,1-.24,1.44,1.55,1.55,0,0,1-.42.72,1,1,0,0,1-.67.2,2.12,2.12,0,0,1-.73-.14c-.26-.1-.56-.19-.91-.3a10.5,10.5,0,0,0-1.09-.3,5.6,5.6,0,0,0-1.33-.14,4.43,4.43,0,0,0-1.69.34,7,7,0,0,0-1.75,1.07,13.29,13.29,0,0,0-1.9,1.92,31.52,31.52,0,0,0-2.11,3v22.37a1,1,0,0,1-.25.69,1.57,1.57,0,0,1-.82.51,6.87,6.87,0,0,1-1.53.3,23.89,23.89,0,0,1-2.46.1,23.55,23.55,0,0,1-2.45-.1,6.86,6.86,0,0,1-1.54-.3,1.57,1.57,0,0,1-.82-.51,1,1,0,0,1-.25-.69V102.58a1.23,1.23,0,0,1,.21-.7,1.39,1.39,0,0,1,.71-.51,6.74,6.74,0,0,1,1.34-.3,17.12,17.12,0,0,1,2.07-.1,17.75,17.75,0,0,1,2.13.1,5.92,5.92,0,0,1,1.32.3,1.44,1.44,0,0,1,.65.51,1.23,1.23,0,0,1,.21.7v4.47a27.67,27.67,0,0,1,2.65-3.31,16.1,16.1,0,0,1,2.37-2.07,7.4,7.4,0,0,1,2.26-1,8.24,8.24,0,0,1,2.25-.3c.34,0,.73,0,1.13.05a9.74,9.74,0,0,1,1.24.21,9.43,9.43,0,0,1,1.13.31,2.26,2.26,0,0,1,.71.39,1.34,1.34,0,0,1,.32.44,3.06,3.06,0,0,1,.17.67,8.73,8.73,0,0,1,.13,1.26C600,104.21,600,105,600,105.93Z"/></g></g></svg>