<svg xmlns="http://www.w3.org/2000/svg" viewBox="0 0 600 186.48"><defs><style>.cls-1{fill:#fff;fill-rule:evenodd;}</style></defs><title>アセット 2</title><g id="レイヤー_2" data-name="レイヤー 2"><g id="Layer_1" data-name="Layer 1"><path class="cls-1" d="M130.93,61.57q1.81-4.22,3.67-8.4l.09-.22,32,1L125,14.13l-21.31.5-.09-.06C93.27,7.75,81.64,2.52,69.32.7a59.42,59.42,0,0,0-29,2.67l-.06,0L27.16,3.22a1.17,1.17,0,1,0,0,2.33H35l-1.32.66q-2.1,1.07-4.13,2.26a1.17,1.17,0,0,0,1.2,2Q32.95,9.15,35.27,8l1.22-.59-4.72,6.68a1.17,1.17,0,0,0,1.92,1.35l6.83-9.68.1,0A57.24,57.24,0,0,1,69,3,80.76,80.76,0,0,1,98.5,14.11l1,.62L60,15.66,82.79,32.79c4.6-11.28,35.38,2.55,41.64,7.13l.25.19-.3.53-.29-.11C118,38.09,91.16,27.43,87.38,36.1L81.34,50l-.26,0A74.14,74.14,0,0,0,71,49.51h-.16l-.11-.13C56,32.66,40.33,27.24,18.41,26.77c6.16,6.42,12.67,14.06,14.49,23a31.92,31.92,0,0,1,.19,10.9l0,.17-.14.08c-8.77,5.47-15.14,9.61-21.49,18C.06,94-3.4,113.6,3.66,131.22c-1.25-18.16,10.72-36.65,24.41-47.5,11.4-9,25.79-14.56,40.46-12.86l.37,0-.07.37a10.27,10.27,0,0,0,.89,6.91A24.11,24.11,0,0,1,80.47,61.69l1.24-.84L81,62.15c-3.45,6-7.86,14.42-3.09,20.78A23.21,23.21,0,0,1,78,79.59c.7-7,5.1-13.25,10.83-17.13l1.25-.84-.75,1.3A61.54,61.54,0,0,0,84,75.19c16.68,4.79,33.82,17.16,42,32.52l.23.44-.48.07c-12.47,2-20.11.81-32-3.32a166.72,166.72,0,0,0-18.32-5.31c-24-5.41-50.58-4.54-61.66,21.34-3.07,7.19-3.5,11.82-3.29,19.52,3.38,12.3,17.43,21.88,29.08,25.44l.17.05.06.17a29.61,29.61,0,0,0,5.69,10.83c5.08,6,12.09,8.83,19.74,9.54A25.76,25.76,0,0,1,58.58,180c-6.24-8.68-7-20.39-3.75-30.36a38.83,38.83,0,0,1,23-24.3C60.67,124.56,45,134,41,151.46l-.1.43-.4-.19c-13.5-6.64-16.1-19-12.3-32.41-3.8,1.83-7.42,6.78-9.64,10l-.88,1.3L18,129c3-18.64,21.27-26.18,38.38-24.88l.3,0,0,.3a12,12,0,0,1-.21,3.38c-1,4.45-5.18,7.73-8.91,10.16,2.42,0,4.83-.07,7.24-.25,9-.68,22.1-3.12,29.65-8.36l.14-.11.17.06c14.25,4.9,31.91,7.76,46.65,3.57a55.18,55.18,0,0,0,19.5-9.77c3.32-2.75,7.65-7.42,6.94-12.14a7.19,7.19,0,0,0-1.87-3.8c-13.28-14.68-30-23.31-48.08-30.7l-2.25-.92,2.42.25a82.2,82.2,0,0,1,22.87,5.72ZM114.11,74.31A4.09,4.09,0,1,1,110,78.4,4.09,4.09,0,0,1,114.11,74.31Z"/><path class="cls-1" d="M224.38,112.82a35.52,35.52,0,0,1-1.87,12.24,20.94,20.94,0,0,1-5.36,8.3,21.63,21.63,0,0,1-8.5,4.71,41.74,41.74,0,0,1-11.92,1.51H184.32a3.28,3.28,0,0,1-2.23-.78,3.18,3.18,0,0,1-.91-2.55V90.92a3.18,3.18,0,0,1,.91-2.55,3.29,3.29,0,0,1,2.23-.79h13.33a37,37,0,0,1,11.79,1.64A21.2,21.2,0,0,1,217.6,94a20.8,20.8,0,0,1,5.05,7.9,31.54,31.54,0,0,1,1.73,10.89Zm-10.95.36a25.89,25.89,0,0,0-.86-6.86,14.45,14.45,0,0,0-2.77-5.49,12.86,12.86,0,0,0-4.9-3.63,19.84,19.84,0,0,0-7.85-1.31h-5.34v35.3h5.5a20.45,20.45,0,0,0,7.31-1.13,12.17,12.17,0,0,0,5-3.38,14.73,14.73,0,0,0,3-5.64A28.42,28.42,0,0,0,213.43,113.18Z"/><path class="cls-1" d="M263.93,119.26a3.94,3.94,0,0,1-.82,2.73,3,3,0,0,1-2.28.89H239a14.5,14.5,0,0,0,.55,4.14,8,8,0,0,0,1.71,3.15,7.52,7.52,0,0,0,3.06,2,13.18,13.18,0,0,0,4.47.68,24.73,24.73,0,0,0,4.66-.38,29.44,29.44,0,0,0,3.47-.85c1-.32,1.79-.59,2.43-.85a4.34,4.34,0,0,1,1.56-.38,1.2,1.2,0,0,1,.61.13,1.09,1.09,0,0,1,.41.51,3.84,3.84,0,0,1,.22,1c0,.43.05,1,.05,1.65s0,1.1,0,1.51-.07.77-.12,1.06a2.47,2.47,0,0,1-.24.74,2.79,2.79,0,0,1-.42.59,5.36,5.36,0,0,1-1.43.77,23.23,23.23,0,0,1-3,1,40.74,40.74,0,0,1-4.13.82,33.9,33.9,0,0,1-5,.36,26.21,26.21,0,0,1-8.38-1.21,14.37,14.37,0,0,1-9.59-9.83,29.15,29.15,0,0,1-1.18-8.76,27.91,27.91,0,0,1,1.24-8.62,17.9,17.9,0,0,1,3.62-6.49,15.37,15.37,0,0,1,5.76-4.08,22.21,22.21,0,0,1,15.36-.08A13.79,13.79,0,0,1,260,105.1a15,15,0,0,1,3,5.56,24.32,24.32,0,0,1,1,7v1.6Zm-9.79-2.88a10.33,10.33,0,0,0-1.72-6.69,6.57,6.57,0,0,0-5.64-2.44,7.34,7.34,0,0,0-3.36.72,6.81,6.81,0,0,0-2.39,2,8.76,8.76,0,0,0-1.44,2.9,14.56,14.56,0,0,0-.59,3.56Z"/><path class="cls-1" d="M303.74,119.26a3.89,3.89,0,0,1-.82,2.73,3,3,0,0,1-2.28.89H278.82a14.51,14.51,0,0,0,.54,4.14,8,8,0,0,0,1.72,3.15,7.45,7.45,0,0,0,3.06,2,13.1,13.1,0,0,0,4.47.68,24.87,24.87,0,0,0,4.66-.38,29.94,29.94,0,0,0,3.47-.85c1-.32,1.78-.59,2.42-.85a4.43,4.43,0,0,1,1.57-.38,1.19,1.19,0,0,1,.6.13,1.09,1.09,0,0,1,.41.51,3.48,3.48,0,0,1,.22,1c0,.43.06,1,.06,1.65s0,1.1,0,1.51a7.09,7.09,0,0,1-.12,1.06,2.23,2.23,0,0,1-.23.74,2.85,2.85,0,0,1-.43.59,5.24,5.24,0,0,1-1.42.77,22.92,22.92,0,0,1-3,1,40.74,40.74,0,0,1-4.13.82,33.76,33.76,0,0,1-5,.36,26.17,26.17,0,0,1-8.38-1.21,15.06,15.06,0,0,1-6-3.65,15.41,15.41,0,0,1-3.59-6.18,29.48,29.48,0,0,1-1.18-8.76,27.6,27.6,0,0,1,1.25-8.62,17.75,17.75,0,0,1,3.62-6.49,15.37,15.37,0,0,1,5.76-4.08,22.18,22.18,0,0,1,15.35-.08,13.82,13.82,0,0,1,5.26,3.68,15,15,0,0,1,3,5.56,24,24,0,0,1,1,7v1.6ZM294,116.38a10.39,10.39,0,0,0-1.71-6.69q-1.83-2.44-5.65-2.44a7.36,7.36,0,0,0-3.36.72,6.9,6.9,0,0,0-2.39,2,8.76,8.76,0,0,0-1.44,2.9,14.1,14.1,0,0,0-.58,3.56Z"/><path class="cls-1" d="M346.52,119.77a33.05,33.05,0,0,1-1,8.61,19,19,0,0,1-3,6.52,13.28,13.28,0,0,1-4.88,4.15,15.07,15.07,0,0,1-6.71,1.44,12.11,12.11,0,0,1-2.86-.31,11.18,11.18,0,0,1-2.54-.91,17.56,17.56,0,0,1-2.42-1.55,30.81,30.81,0,0,1-2.49-2.17v16.86a1.18,1.18,0,0,1-.24.73,1.69,1.69,0,0,1-.83.54A6.62,6.62,0,0,1,318,154a25.17,25.17,0,0,1-4.91,0,6.85,6.85,0,0,1-1.54-.34,1.7,1.7,0,0,1-.82-.54,1.19,1.19,0,0,1-.25-.73V102.35a1.23,1.23,0,0,1,.21-.7,1.35,1.35,0,0,1,.7-.5,5.56,5.56,0,0,1,1.33-.31,19.45,19.45,0,0,1,2.06-.09,19.23,19.23,0,0,1,2,.09,5.82,5.82,0,0,1,1.33.31,1.46,1.46,0,0,1,.69.5,1.25,1.25,0,0,1,.21.72v4.22a32.43,32.43,0,0,1,3.07-2.82,17.78,17.78,0,0,1,3.06-2,14.2,14.2,0,0,1,3.24-1.23,15.5,15.5,0,0,1,3.55-.4,13.57,13.57,0,0,1,6.7,1.55,12.63,12.63,0,0,1,4.51,4.24,18.73,18.73,0,0,1,2.55,6.26,34.48,34.48,0,0,1,.8,7.63Zm-10.53.7a27,27,0,0,0-.34-4.39,12.62,12.62,0,0,0-1.17-3.74,7,7,0,0,0-2.15-2.62,5.54,5.54,0,0,0-3.35-1,6.49,6.49,0,0,0-2,.3,7.58,7.58,0,0,0-2,1,14.3,14.3,0,0,0-2.1,1.75,26,26,0,0,0-2.29,2.69v11.81a23.68,23.68,0,0,0,4,4.12,6.52,6.52,0,0,0,4,1.46,5.52,5.52,0,0,0,3.35-1,7.89,7.89,0,0,0,2.26-2.62,12.92,12.92,0,0,0,1.3-3.68A19.58,19.58,0,0,0,336,120.47Z"/><path class="cls-1" d="M395.52,124a16.23,16.23,0,0,1-1.52,7.2,15.14,15.14,0,0,1-4.14,5.15,18.51,18.51,0,0,1-6.12,3.11,25.93,25.93,0,0,1-7.49,1.05,26.24,26.24,0,0,1-5-.46,28.32,28.32,0,0,1-4.07-1.08,16.78,16.78,0,0,1-3-1.32,9,9,0,0,1-1.71-1.22,3.14,3.14,0,0,1-.74-1.52,13.49,13.49,0,0,1-.22-2.82c0-.84,0-1.53.08-2.09a6.69,6.69,0,0,1,.26-1.37,1.7,1.7,0,0,1,.48-.74,1.18,1.18,0,0,1,.72-.22,3.33,3.33,0,0,1,1.59.67,26.86,26.86,0,0,0,2.63,1.47,24.14,24.14,0,0,0,3.85,1.47,17.87,17.87,0,0,0,5.17.67,12.24,12.24,0,0,0,3.46-.45,7.75,7.75,0,0,0,2.6-1.31A5.41,5.41,0,0,0,384,128.1a6.63,6.63,0,0,0,.57-2.75,4.83,4.83,0,0,0-1-3,9.43,9.43,0,0,0-2.53-2.25,24,24,0,0,0-3.52-1.85c-1.3-.58-2.66-1.18-4.06-1.83a34.49,34.49,0,0,1-4.06-2.19,16.19,16.19,0,0,1-3.52-2.92,13.48,13.48,0,0,1-2.52-4,14.41,14.41,0,0,1-1-5.58,14.83,14.83,0,0,1,1.38-6.56,13.48,13.48,0,0,1,3.73-4.69,16,16,0,0,1,5.54-2.8A24.73,24.73,0,0,1,383.56,87a25.63,25.63,0,0,1,3.46.75,21,21,0,0,1,2.85,1.09,7,7,0,0,1,1.64,1,3,3,0,0,1,.54.67,3.06,3.06,0,0,1,.25.76,6.45,6.45,0,0,1,.13,1.16c0,.47,0,1,0,1.74s0,1.43-.05,2a6.75,6.75,0,0,1-.21,1.33,1.59,1.59,0,0,1-.39.76,1,1,0,0,1-.72.25,3.58,3.58,0,0,1-1.4-.57q-1-.55-2.37-1.23a21.8,21.8,0,0,0-3.26-1.19,14,14,0,0,0-4.06-.55,9.54,9.54,0,0,0-3,.42,6.2,6.2,0,0,0-2.14,1.17,4.44,4.44,0,0,0-1.28,1.78,5.73,5.73,0,0,0-.43,2.21,4.85,4.85,0,0,0,.95,3,9.17,9.17,0,0,0,2.53,2.26,30.28,30.28,0,0,0,3.61,1.84c1.33.57,2.7,1.19,4.1,1.82a39.4,39.4,0,0,1,4.1,2.19,17,17,0,0,1,3.59,2.94,13.83,13.83,0,0,1,2.54,4A14,14,0,0,1,395.52,124Z"/><path class="cls-1" d="M428.44,132.51c0,.69,0,1.27-.06,1.75s-.1.86-.16,1.19a3.41,3.41,0,0,1-.25.78,2.94,2.94,0,0,1-.62.77,10,10,0,0,1-1.64,1.13,17.38,17.38,0,0,1-2.66,1.19,21.71,21.71,0,0,1-3.23.84,20.86,20.86,0,0,1-10.92-1,13.74,13.74,0,0,1-5.38-3.8,16.55,16.55,0,0,1-3.26-6.14,28.29,28.29,0,0,1-1.11-8.29,29,29,0,0,1,1.34-9.31,18,18,0,0,1,3.76-6.5,15,15,0,0,1,5.7-3.82,20.13,20.13,0,0,1,7.24-1.25,17.61,17.61,0,0,1,3.16.29,19.39,19.39,0,0,1,2.89.75,16.27,16.27,0,0,1,2.4,1.09,7.36,7.36,0,0,1,1.51,1,4.36,4.36,0,0,1,.63.74,3.22,3.22,0,0,1,.27.78c.07.33.12.73.17,1.2s0,1,0,1.71a9.08,9.08,0,0,1-.4,3.29c-.27.63-.61,1-1,1a2.53,2.53,0,0,1-1.45-.56c-.51-.38-1.11-.8-1.81-1.25a12.73,12.73,0,0,0-2.48-1.25,9.65,9.65,0,0,0-3.46-.56,6.88,6.88,0,0,0-6,3c-1.39,2-2.09,5-2.09,8.9a22.87,22.87,0,0,0,.52,5.1,11.25,11.25,0,0,0,1.55,3.69,6.62,6.62,0,0,0,2.57,2.23,8.33,8.33,0,0,0,3.6.74,9.13,9.13,0,0,0,3.6-.63A15,15,0,0,0,424,130c.74-.51,1.37-1,1.89-1.39a2.21,2.21,0,0,1,1.28-.63.88.88,0,0,1,.6.21,1.38,1.38,0,0,1,.38.74,8.29,8.29,0,0,1,.22,1.39A21.53,21.53,0,0,1,428.44,132.51Z"/><path class="cls-1" d="M468.41,138.22a1.1,1.1,0,0,1-.24.7,1.7,1.7,0,0,1-.8.51,8.14,8.14,0,0,1-1.56.3,23.78,23.78,0,0,1-2.43.1,24.31,24.31,0,0,1-2.48-.1,8.14,8.14,0,0,1-1.56-.3,1.7,1.7,0,0,1-.8-.51,1.11,1.11,0,0,1-.25-.7V117.78a17,17,0,0,0-.38-4.1,7.83,7.83,0,0,0-1.1-2.55,5.12,5.12,0,0,0-1.86-1.66,5.92,5.92,0,0,0-2.66-.58,6.65,6.65,0,0,0-3.9,1.42,21.14,21.14,0,0,0-4.08,4.08v23.83a1.06,1.06,0,0,1-.25.7,1.63,1.63,0,0,1-.82.51,8.38,8.38,0,0,1-1.54.3,23.55,23.55,0,0,1-2.45.1,23.89,23.89,0,0,1-2.46-.1,8.25,8.25,0,0,1-1.53-.3,1.63,1.63,0,0,1-.82-.51,1.06,1.06,0,0,1-.25-.7V85.36a1.13,1.13,0,0,1,.25-.72,1.65,1.65,0,0,1,.82-.54,6.62,6.62,0,0,1,1.53-.34,20.76,20.76,0,0,1,2.46-.12,20.46,20.46,0,0,1,2.45.12,6.72,6.72,0,0,1,1.54.34,1.65,1.65,0,0,1,.82.54,1.15,1.15,0,0,1,.25.72v19.83a19.52,19.52,0,0,1,5.32-3.84,13.41,13.41,0,0,1,5.65-1.26,14.08,14.08,0,0,1,6.17,1.21,10.71,10.71,0,0,1,4.06,3.29,13.39,13.39,0,0,1,2.22,4.88,29.26,29.26,0,0,1,.68,6.77Z"/><path class="cls-1" d="M512.93,119.93a27.17,27.17,0,0,1-1.21,8.35,17.38,17.38,0,0,1-3.66,6.5,16.16,16.16,0,0,1-6.14,4.22,23.12,23.12,0,0,1-8.64,1.49,23.54,23.54,0,0,1-8.32-1.33,14.87,14.87,0,0,1-5.87-3.86,15.9,15.9,0,0,1-3.46-6.22,29,29,0,0,1-1.12-8.44,27.27,27.27,0,0,1,1.22-8.36,17.44,17.44,0,0,1,3.69-6.51,16.5,16.5,0,0,1,6.13-4.2,22.86,22.86,0,0,1,8.61-1.48,24.39,24.39,0,0,1,8.36,1.3,14.79,14.79,0,0,1,5.85,3.84,16.11,16.11,0,0,1,3.44,6.23,29,29,0,0,1,1.12,8.47Zm-10.37.4a25.5,25.5,0,0,0-.42-4.88,11.1,11.1,0,0,0-1.44-3.88A7.18,7.18,0,0,0,498,109a8.68,8.68,0,0,0-4.23-.92,9,9,0,0,0-4,.82,7.12,7.12,0,0,0-2.78,2.42,11.12,11.12,0,0,0-1.63,3.81,20.68,20.68,0,0,0-.55,5.09,25.51,25.51,0,0,0,.44,4.88,12.37,12.37,0,0,0,1.43,3.88,6.88,6.88,0,0,0,2.69,2.55,8.88,8.88,0,0,0,4.2.9,9.1,9.1,0,0,0,4-.82,7.15,7.15,0,0,0,2.79-2.39,11.18,11.18,0,0,0,1.61-3.79A22.39,22.39,0,0,0,502.56,120.33Z"/><path class="cls-1" d="M529.48,138.22a1.11,1.11,0,0,1-.25.7,1.68,1.68,0,0,1-.82.51,8.56,8.56,0,0,1-1.54.3,30.19,30.19,0,0,1-4.91,0,8.25,8.25,0,0,1-1.53-.3,1.67,1.67,0,0,1-.83-.51,1.1,1.1,0,0,1-.24-.7V85.36a1.18,1.18,0,0,1,.24-.72,1.69,1.69,0,0,1,.83-.54,6.62,6.62,0,0,1,1.53-.34,25.17,25.17,0,0,1,4.91,0,6.85,6.85,0,0,1,1.54.34,1.7,1.7,0,0,1,.82.54,1.19,1.19,0,0,1,.25.72Z"/><path class="cls-1" d="M568.48,138.35a1.08,1.08,0,0,1-.4.87,2.81,2.81,0,0,1-1.27.47,24.21,24.21,0,0,1-5.2,0,2.21,2.21,0,0,1-1.16-.47,1.1,1.1,0,0,1-.35-.87v-2.86a16.23,16.23,0,0,1-5,3.68,14.65,14.65,0,0,1-6.28,1.32,17.74,17.74,0,0,1-5.24-.74,12,12,0,0,1-4.13-2.21,10.14,10.14,0,0,1-2.71-3.64,12.28,12.28,0,0,1-1-5.06A11.52,11.52,0,0,1,537,123.4a10,10,0,0,1,3.66-3.82,17.94,17.94,0,0,1,6-2.23,43.18,43.18,0,0,1,8.38-.72h3.5v-2.17a11,11,0,0,0-.35-3,4.87,4.87,0,0,0-1.12-2.11,4.56,4.56,0,0,0-2.08-1.25,11.42,11.42,0,0,0-3.23-.4,16.76,16.76,0,0,0-4.51.56,25.76,25.76,0,0,0-3.51,1.25c-1,.45-1.86.88-2.55,1.25a3.75,3.75,0,0,1-1.66.56,1.19,1.19,0,0,1-.78-.27,2,2,0,0,1-.56-.81,5.79,5.79,0,0,1-.35-1.29,10.84,10.84,0,0,1-.12-1.67,7.37,7.37,0,0,1,.21-2,3,3,0,0,1,.75-1.3,7.94,7.94,0,0,1,2-1.28,23.5,23.5,0,0,1,3.29-1.3,28.78,28.78,0,0,1,4.11-1,26.81,26.81,0,0,1,4.61-.38,27.47,27.47,0,0,1,7.21.82,12.11,12.11,0,0,1,4.91,2.54,9.8,9.8,0,0,1,2.82,4.4,20.44,20.44,0,0,1,.88,6.38v24.12Zm-10-15.39h-3.86a20.81,20.81,0,0,0-4.17.36,7.71,7.71,0,0,0-2.81,1.1,4.33,4.33,0,0,0-1.57,1.74,5,5,0,0,0-.51,2.34A4.51,4.51,0,0,0,547,132a5.63,5.63,0,0,0,3.94,1.29,7.32,7.32,0,0,0,3.91-1.09,16,16,0,0,0,3.64-3.18Z"/><path class="cls-1" d="M600,105.7c0,1,0,1.75-.08,2.37a8.17,8.17,0,0,1-.24,1.44,1.65,1.65,0,0,1-.42.73,1.11,1.11,0,0,1-.67.19,2.12,2.12,0,0,1-.73-.14l-.9-.3c-.33-.11-.7-.21-1.1-.3a5.6,5.6,0,0,0-1.33-.14,4.43,4.43,0,0,0-1.69.34,7.3,7.3,0,0,0-1.75,1.07,13.29,13.29,0,0,0-1.9,1.92,35.65,35.65,0,0,0-2.11,3v22.36a1.1,1.1,0,0,1-.24.7,1.67,1.67,0,0,1-.83.51,8.25,8.25,0,0,1-1.53.3,30.19,30.19,0,0,1-4.91,0,8.56,8.56,0,0,1-1.54-.3,1.68,1.68,0,0,1-.82-.51,1.11,1.11,0,0,1-.25-.7V102.35a1.23,1.23,0,0,1,.21-.7,1.38,1.38,0,0,1,.71-.5,6.3,6.3,0,0,1,1.35-.31,19.53,19.53,0,0,1,2.07-.09,20.44,20.44,0,0,1,2.12.09,5.35,5.35,0,0,1,1.32.31,1.52,1.52,0,0,1,.66.5,1.3,1.3,0,0,1,.2.7v4.47a27.67,27.67,0,0,1,2.65-3.3,15,15,0,0,1,2.37-2.07,7.21,7.21,0,0,1,2.26-1.06,8.64,8.64,0,0,1,2.25-.3,9.12,9.12,0,0,1,1.13.06,9.66,9.66,0,0,1,1.24.2,11.57,11.57,0,0,1,1.13.32,2.09,2.09,0,0,1,.71.38,1.59,1.59,0,0,1,.32.44,3.06,3.06,0,0,1,.17.67,8.73,8.73,0,0,1,.13,1.26C600,104,600,104.74,600,105.7Z"/></g></g></svg>