<svg width="161" height="46" viewBox="0 0 161 46" version="1.1" xmlns="http://www.w3.org/2000/svg" xmlns:xlink="http://www.w3.org/1999/xlink">
<title>Group 2</title>
<desc>Created using Figma</desc>
<g id="Canvas" transform="translate(-4826 -3375)">
<g id="Group 2">
<g id="Group">
<g id="Vector">
<use xlink:href="#path0_fill" transform="translate(4826 3375)" fill="#FFFFFF"/>
</g>
</g>
<g id="Vector">
<use xlink:href="#path1_fill" transform="translate(4831 3377)" fill="#203C62"/>
</g>
<g id="Vector">
<use xlink:href="#path2_fill" transform="translate(4879 3394.95)" fill="#FFFFFF"/>
</g>
<g id="Vector">
<use xlink:href="#path3_fill" transform="translate(4891.35 3398.13)" fill="#FFFFFF"/>
</g>
<g id="Vector">
<use xlink:href="#path4_fill" transform="translate(4901.58 3398.13)" fill="#FFFFFF"/>
</g>
<g id="Vector">
<use xlink:href="#path5_fill" transform="translate(4912.31 3398.16)" fill="#FFFFFF"/>
</g>
<g id="Vector">
<use xlink:href="#path6_fill" transform="translate(4925.45 3394.74)" fill="#FFFFFF"/>
</g>
<g id="Vector">
<use xlink:href="#path7_fill" transform="translate(4935.21 3398.16)" fill="#FFFFFF"/>
</g>
<g id="Vector">
<use xlink:href="#path8_fill" transform="translate(4944.23 3394)" fill="#FFFFFF"/>
</g>
<g id="Vector">
<use xlink:href="#path9_fill" transform="translate(4954.67 3398.16)" fill="#FFFFFF"/>
</g>
<g id="Vector">
<use xlink:href="#path10_fill" transform="translate(4966.16 3394.04)" fill="#FFFFFF"/>
</g>
<g id="Vector">
<use xlink:href="#path11_fill" transform="translate(4970.68 3398.16)" fill="#FFFFFF"/>
</g>
<g id="Vector">
<use xlink:href="#path12_fill" transform="translate(4981.11 3398.14)" fill="#FFFFFF"/>
</g>
</g>
</g>
<defs>
<path id="path0_fill" d="M 22.5 45.279C 34.9264 45.279 45 35.1429 45 22.6395C 45 10.136 34.9264 0 22.5 0C 10.0736 0 0 10.136 0 22.6395C 0 35.1429 10.0736 45.279 22.5 45.279Z"/>
<path id="path1_fill" d="M 1.06174 31.3684C -0.890967 26.9779 -0.0308473 22.1412 2.66575 18.5255C 4.17677 16.4828 5.61805 15.5672 7.68699 14.2758C 8.10542 11.3175 7.08258 9.29834 4.15352 6.26957C 9.84891 6.36349 13.3591 7.91309 16.5439 11.5993C 17.3343 11.5758 18.1247 11.5993 18.915 11.6932L 20.2866 8.50006C 21.1932 6.38697 27.5162 8.92268 28.911 9.48617C 27.4 8.38266 20.1936 5.16607 19.3335 7.88961L 13.7543 3.66343L 22.8902 3.45212C 20.798 2.1373 18.4966 1.26859 16.0557 0.869449C 13.8705 0.517267 11.6156 0.728577 9.52346 1.50338L 7.9427 3.75734C 7.82646 3.92169 7.61725 3.96865 7.45452 3.85126C 7.2918 3.73386 7.2453 3.52255 7.36154 3.3582L 8.26815 2.04339C 7.91945 2.20774 7.57075 2.39557 7.22206 2.60688C 7.05933 2.7008 6.82687 2.65384 6.73388 2.48949C 6.64089 2.32513 6.68739 2.09035 6.85011 1.99643C 7.15232 1.8086 7.50101 1.64425 7.82646 1.45642L 6.36194 1.45642C 6.17596 1.4799 5.98999 1.3625 5.96675 1.15119C 5.9435 0.963365 6.05973 0.775534 6.26895 0.752055C 6.31544 0.752055 6.33869 0.752055 6.38518 0.752055L 9.43047 0.799013C 11.5924 0.0242127 13.917 -0.187097 16.1952 0.165085C 18.8685 0.564225 21.5884 1.69121 24.192 3.42864L 29.1435 3.31124L 39 12.8202L 31.4216 12.5854C 31.1194 13.2428 30.8405 13.9471 30.5383 14.628C 28.818 13.9002 27.0281 13.4541 25.1683 13.2663C 29.3527 15.0037 33.2581 17.0229 36.3731 20.4977C 38.0934 22.423 34.8854 25.4283 30.6313 26.6726C 27.1908 27.6588 23.0762 26.9779 19.7519 25.8274C 17.9387 27.0953 14.2192 27.9405 10.8718 27.8701C 12.7315 26.6961 13.2661 25.8039 13.1732 24.63C 9.31424 24.3248 5.06013 26.0152 4.33949 30.4058C 5.31584 28.9501 6.08298 28.2222 6.78037 27.964C 5.89701 30.9458 6.26895 33.998 9.5467 35.6416C 10.4998 31.3684 14.3587 29.1144 18.5431 29.4901C 11.5459 31.9789 10.6393 41.0652 15.5675 44C 10.4998 43.6948 9.47697 39.8208 9.26775 39.1399C 6.43168 38.2712 3.22366 35.9468 2.45653 33.1058C 2.41003 31.251 2.47977 30.2179 3.22366 28.4805C 6.43168 20.8969 15.2421 22.3291 21.8906 24.677C 24.7034 25.6631 26.4237 25.9213 29.283 25.4517C 27.5162 22.0943 23.6806 19.0186 19.4962 17.8446C 19.8216 16.8116 20.2401 15.802 20.7748 14.8628C 19.473 15.755 18.4501 17.2107 18.2874 18.8307C 18.2409 19.1594 18.2409 19.5116 18.2641 19.8403C 16.8926 18.2907 17.9619 16.2246 18.8221 14.6985C 17.4273 15.5907 16.5207 17.0933 16.3347 18.7368C 15.9627 18.1733 15.8465 17.5159 16.0092 16.8585C 7.87296 15.8254 0.178371 24.4891 1.06174 31.3684ZM 26.5631 17.6568C 25.982 17.6568 25.5403 18.2438 25.7495 18.8777C 25.8425 19.089 26.0052 19.2768 26.2377 19.3473C 27.0048 19.629 27.7255 18.8542 27.307 18.0794C 27.1675 17.8211 26.8886 17.6568 26.5864 17.6568L 26.5631 17.6568Z"/>
<path id="path2_fill" d="M 11.1652 6.50384C 11.191 7.58307 11.0363 8.6366 10.6755 9.66444C 10.392 10.4867 9.92802 11.2062 9.28365 11.7972C 8.66507 12.3625 7.91761 12.7736 7.09282 13.0049C 6.08762 13.2876 5.05664 13.416 4.02566 13.3904L 0.829617 13.3904C 0.623421 13.3904 0.417225 13.339 0.236803 13.1848C 0.0563817 13.0049 -0.0209418 12.7737 0.00483272 12.5167L 0.00483272 0.876434C -0.0209418 0.64517 0.0563817 0.388211 0.236803 0.20834C 0.39145 0.07986 0.597646 0.00277217 0.803842 0.00277217L 4.23185 0.00277217C 5.26283 -0.0229238 6.29381 0.131252 7.27324 0.413907C 8.04648 0.670866 8.76816 1.082 9.38675 1.64731C 9.95379 2.21262 10.4177 2.90641 10.6755 3.67729C 11.0105 4.60234 11.1652 5.55309 11.1652 6.50384ZM 8.51042 6.50384C 8.51042 5.91284 8.4331 5.32183 8.27845 4.75652C 8.14958 4.2426 7.89183 3.78007 7.55676 3.36894C 7.22169 2.9578 6.78353 2.64945 6.26804 2.44389C 5.62367 2.21262 4.92776 2.08414 4.20608 2.10984L 2.84003 2.10984L 2.84003 11.1034L 4.2834 11.1034C 4.92776 11.1291 5.57213 11.0263 6.19071 10.8208C 6.68043 10.6409 7.14437 10.3582 7.50521 9.9471C 7.86606 9.53596 8.14958 9.04774 8.27845 8.50813C 8.45887 7.84003 8.53619 7.17194 8.51042 6.50384Z"/>
<path id="path3_fill" d="M 9.02108 4.94332C 9.04685 5.20028 8.96953 5.45724 8.81488 5.63711C 8.66023 5.79129 8.45404 5.86837 8.22207 5.84268L 2.60322 5.84268C 2.60322 6.22812 2.65477 6.58786 2.75787 6.92191C 2.83519 7.23026 2.98984 7.51291 3.19604 7.74418C 3.40223 7.97544 3.68575 8.15531 3.99505 8.2581C 4.35589 8.38658 4.76828 8.43797 5.1549 8.43797C 5.56729 8.43797 5.95391 8.41227 6.3663 8.33518C 6.6756 8.28379 6.95912 8.2067 7.26841 8.10392C 7.52615 8.02683 7.73235 7.94975 7.887 7.87266C 8.01587 7.82127 8.14474 7.79557 8.29939 7.76987C 8.35094 7.76987 8.40249 7.76987 8.45404 7.79557C 8.50558 7.82127 8.53136 7.87266 8.55713 7.92405C 8.58291 8.00114 8.60868 8.10392 8.60868 8.18101C 8.60868 8.28379 8.60868 8.43797 8.58291 8.61784L 8.58291 9.00328C 8.60868 9.10606 8.60868 9.18315 8.58291 9.28593C 8.58291 9.36302 8.55713 9.41441 8.53136 9.46581C 8.50559 9.5172 8.45404 9.56859 8.42826 9.61998C 8.32516 9.69707 8.19629 9.77416 8.06742 9.82555C 7.80967 9.92833 7.55193 10.0054 7.29418 10.0825C 6.93334 10.1596 6.59827 10.2367 6.23743 10.2881C 5.79926 10.3395 5.38687 10.3909 4.9487 10.3909C 4.22702 10.4166 3.47956 10.2881 2.78365 10.0825C 2.19083 9.90264 1.67534 9.56859 1.23718 9.15745C 0.79901 8.72062 0.489715 8.15531 0.309294 7.56431C 0.103098 6.84482 3.93288e-07 6.07394 3.93288e-07 5.30306C 3.93288e-07 4.55788 0.103098 3.8127 0.309294 3.09321C 0.489715 2.47651 0.824784 1.9112 1.23718 1.42298C 1.64957 0.960451 2.16506 0.600708 2.7321 0.369444C 3.99505 -0.118779 5.41265 -0.118779 6.70137 0.343748C 7.21686 0.549316 7.6808 0.883363 8.04164 1.2945C 8.40249 1.70563 8.66023 2.19386 8.81488 2.73347C 8.9953 3.32448 9.07262 3.91548 9.0984 4.53219L 9.0984 4.94332L 9.02108 4.94332ZM 6.49517 4.30092C 6.54672 3.68422 6.39208 3.09321 6.05701 2.57929C 5.69617 2.14246 5.1549 1.9112 4.61364 1.96259C 4.30434 1.96259 4.02082 2.01398 3.7373 2.14246C 3.50533 2.27094 3.27336 2.45081 3.11871 2.65638C 2.93829 2.88765 2.83519 3.11891 2.75787 3.40156C 2.68055 3.70992 2.629 4.01827 2.60322 4.32662L 6.49517 4.30092Z"/>
<path id="path4_fill" d="M 9.04685 4.94332C 9.07262 5.20028 8.9953 5.45724 8.84066 5.63711C 8.68601 5.79129 8.47981 5.86837 8.24784 5.84268L 2.629 5.84268C 2.629 6.22812 2.68055 6.58786 2.75787 6.92191C 2.8352 7.23026 2.98984 7.48722 3.19604 7.74418C 3.40223 7.97544 3.68575 8.15531 3.99505 8.2581C 4.35589 8.38658 4.76828 8.43797 5.1549 8.43797C 5.56729 8.43797 5.95391 8.41227 6.3663 8.33518C 6.6756 8.28379 6.95912 8.2067 7.26841 8.10392C 7.52616 8.02683 7.73235 7.94975 7.887 7.87266C 8.01587 7.82127 8.14474 7.76987 8.29939 7.76987C 8.35094 7.76987 8.40249 7.76987 8.45404 7.79557C 8.50559 7.82127 8.53136 7.87266 8.55714 7.92405C 8.58291 8.00114 8.60868 8.10392 8.63446 8.18101L 8.63446 8.61784L 8.63446 9.00328C 8.60868 9.10606 8.60869 9.18315 8.58291 9.28593C 8.58291 9.36302 8.55714 9.41441 8.53136 9.46581C 8.50559 9.5172 8.45404 9.56859 8.42826 9.61998C 8.32517 9.69707 8.19629 9.77416 8.06742 9.82555C 7.80967 9.92833 7.55193 10.0054 7.29419 10.0825C 6.93334 10.1596 6.59827 10.2367 6.23743 10.2881C 5.79926 10.3395 5.38687 10.3909 4.94871 10.3909C 4.22702 10.4166 3.47956 10.2881 2.78365 10.0825C 2.19083 9.90264 1.67534 9.56859 1.23718 9.15745C 0.79901 8.72062 0.489716 8.15531 0.309295 7.56431C 0.103099 6.84482 -3.93288e-07 6.07394 -3.93288e-07 5.30306C -3.93288e-07 4.55788 0.103099 3.8127 0.309295 3.09321C 0.489716 2.47651 0.824785 1.9112 1.23718 1.42298C 1.64957 0.960451 2.16506 0.600708 2.7321 0.369444C 3.99505 -0.118779 5.41265 -0.118779 6.70137 0.343748C 7.21686 0.549316 7.6808 0.883363 8.06742 1.2945C 8.42826 1.70563 8.68601 2.19386 8.84066 2.73347C 9.02108 3.32448 9.0984 3.91548 9.17572 4.53219L 9.17572 4.94332L 9.04685 4.94332ZM 6.52095 4.30092C 6.5725 3.68422 6.41785 3.09321 6.08278 2.57929C 5.77349 2.16816 5.28377 1.96259 4.63941 1.96259C 4.33012 1.96259 4.0466 2.01398 3.76308 2.14246C 3.53111 2.27094 3.29914 2.45081 3.14449 2.65638C 2.96407 2.88765 2.86097 3.11891 2.78365 3.40156C 2.70632 3.70992 2.65477 4.01827 2.629 4.32662L 6.52095 4.30092Z"/>
<path id="path5_fill" d="M 9.35614 5.03918C 9.35614 5.78436 9.27882 6.52954 9.0984 7.24903C 8.94375 7.84003 8.68601 8.43104 8.32516 8.91926C 7.9901 9.38179 7.55193 9.74153 7.06222 9.97279C 6.52095 10.2298 5.92813 10.3582 5.33532 10.3325C 5.07758 10.3325 4.84561 10.3068 4.58786 10.2554C 4.35589 10.2041 4.1497 10.127 3.9435 10.0242C 3.71153 9.9214 3.50533 9.79292 3.29914 9.63875C 3.06717 9.45888 2.5259 9.07344 2.5259 9.07344L 2.5259 13.416C 2.5259 13.4931 2.50013 13.5445 2.47435 13.5959C 2.4228 13.6473 2.34548 13.6987 2.26816 13.7244C 2.13928 13.7758 2.01041 13.8015 1.88154 13.8015C 1.46915 13.8529 1.05675 13.8529 0.644362 13.8015C 0.515489 13.7758 0.386617 13.7501 0.257744 13.7244C 0.180421 13.6987 0.103096 13.6473 0.0515474 13.5959C -1.5758e-06 13.5445 -7.86575e-07 13.4674 -7.86575e-07 13.416L -7.86575e-07 0.568083C -7.86575e-07 0.490995 0.0257729 0.439603 0.0515474 0.388211C 0.103096 0.311124 0.154649 0.285428 0.231972 0.259732C 0.360845 0.20834 0.463941 0.182644 0.592814 0.182644C 0.773235 0.156948 0.953656 0.156948 1.15985 0.156948C 1.34027 0.156948 1.5207 0.156948 1.70112 0.182644C 1.82999 0.20834 1.93309 0.234036 2.06196 0.259732C 2.13928 0.285428 2.21661 0.336819 2.24238 0.388211C 2.26815 0.439603 2.29393 0.516691 2.29393 0.568083L 2.29393 1.64731C 2.29393 1.64731 2.78365 1.13339 3.06717 0.927826C 3.32491 0.722258 3.58266 0.568083 3.86617 0.413907C 4.12392 0.285427 4.40744 0.156948 4.69096 0.105556C 5.00025 0.0284682 5.30955 0.00277235 5.59307 0.00277235C 6.18588 -0.0229236 6.7787 0.131252 7.31996 0.413907C 7.7839 0.670866 8.19629 1.05631 8.47981 1.49314C 8.78911 1.98136 9.02108 2.52097 9.12418 3.11198C 9.27882 3.72868 9.33037 4.39678 9.35614 5.03918ZM 6.75292 5.21905C 6.75292 4.83361 6.72715 4.47386 6.6756 4.08843C 6.62405 3.75438 6.52095 3.42033 6.3663 3.11198C 6.23743 2.85502 6.05701 2.62376 5.82504 2.44389C 5.56729 2.26401 5.28377 2.18693 4.97448 2.18693C 4.79406 2.18693 4.61364 2.21262 4.45899 2.26401C 4.27857 2.31541 4.09815 2.41819 3.9435 2.52097C 3.7373 2.64945 3.55688 2.80363 3.40223 2.9835C 3.19604 3.18907 2.98984 3.42033 2.80942 3.67729L 2.80942 6.70941C 3.11872 7.09485 3.45379 7.45459 3.8404 7.76295C 4.12392 7.99421 4.48477 8.12269 4.87138 8.14838C 5.18068 8.14838 5.48997 8.0713 5.72194 7.89142C 5.95391 7.71155 6.16011 7.48029 6.31475 7.22333C 6.4694 6.91498 6.59827 6.60663 6.64982 6.27258C 6.70137 5.91284 6.75292 5.57879 6.75292 5.21905Z"/>
<path id="path6_fill" d="M 8.73756 9.53721C 8.76333 10.1796 8.60869 10.7963 8.35094 11.3873C 8.0932 11.9012 7.73235 12.3638 7.29418 12.6978C 6.83024 13.0575 6.28898 13.3402 5.72194 13.4944C 5.10335 13.6743 4.43321 13.7513 3.78885 13.7513C 3.35068 13.7513 2.91252 13.7256 2.50013 13.6486C 2.13928 13.5715 1.80422 13.4944 1.44337 13.3659C 1.18563 13.2888 0.927883 13.1603 0.670138 13.0319C 0.515491 12.9548 0.360845 12.8263 0.231972 12.7235C 0.128874 12.6207 0.0773219 12.4665 0.0515474 12.3381C -1.5758e-06 12.1068 -7.86575e-07 11.8498 -7.86575e-07 11.6186C -7.86575e-07 11.413 7.86036e-07 11.2331 0.0257753 11.079C 0.0257753 10.9505 0.0515506 10.8477 0.1031 10.7192C 0.128874 10.6421 0.180423 10.5907 0.231972 10.5393C 0.283521 10.5137 0.360844 10.488 0.412393 10.488C 0.56704 10.5137 0.69591 10.565 0.824783 10.6678C 1.03098 10.7963 1.26295 10.9248 1.49492 11.0533C 1.80422 11.2074 2.13928 11.3359 2.50013 11.4387C 2.93829 11.5672 3.37646 11.6186 3.8404 11.6186C 4.1497 11.6186 4.43322 11.5929 4.74251 11.5158C 4.97448 11.4387 5.20645 11.3359 5.41264 11.1817C 5.59307 11.0276 5.74771 10.8477 5.82504 10.6421C 5.92814 10.4109 5.97968 10.1796 5.97968 9.92265C 5.97968 9.63999 5.90236 9.38303 5.72194 9.15177C 5.54152 8.9205 5.30955 8.71494 5.07758 8.58646C 4.79406 8.40658 4.48476 8.25241 4.17547 8.12393C 3.8404 7.96975 3.47956 7.81558 3.11872 7.6614C 2.75787 7.50723 2.39703 7.30166 2.06196 7.09609C 1.72689 6.89053 1.4176 6.63357 1.15985 6.35091C 0.876332 6.04256 0.670136 5.68282 0.515489 5.29738C 0.335068 4.83485 0.257744 4.34663 0.257744 3.8584C 0.257744 3.2674 0.360845 2.70209 0.61859 2.16247C 0.85056 1.69995 1.18563 1.28881 1.57225 0.954764C 1.98464 0.620717 2.47435 0.389453 2.98984 0.235278C 4.17547 -0.0987693 5.43842 -0.0730734 6.59827 0.28667C 6.85602 0.363758 7.08799 0.440845 7.31996 0.543629C 7.47461 0.620717 7.60348 0.697805 7.73235 0.800588C 7.7839 0.85198 7.83545 0.903372 7.86122 0.98046C 7.887 1.03185 7.91277 1.10894 7.91277 1.18603C 7.93855 1.21172 7.93855 1.31451 7.93855 1.41729C 7.93855 1.54577 7.93855 1.67425 7.93855 1.85412C 7.93855 2.03399 7.93855 2.21386 7.91277 2.36804C 7.91277 2.47082 7.887 2.5993 7.86122 2.70209C 7.83545 2.77918 7.80968 2.83057 7.75813 2.90766C 7.70658 2.95905 7.65503 2.98474 7.57771 2.95905C 7.44883 2.93335 7.31996 2.88196 7.21686 2.80487C 7.06221 2.70209 6.85602 2.5993 6.59827 2.49652C 6.31475 2.36804 6.05701 2.26526 5.74771 2.18817C 5.41265 2.08539 5.0518 2.03399 4.69096 2.03399C 4.43321 2.03399 4.17547 2.05969 3.91772 2.13678C 3.68575 2.21386 3.45378 2.34234 3.27336 2.52222C 3.22181 2.57361 3.17026 2.625 3.14449 2.67639C 2.98984 2.90766 2.91252 3.19031 2.91252 3.44727C 2.91252 3.72992 2.98984 3.98688 3.17026 4.21815C 3.35069 4.44941 3.58266 4.65498 3.81463 4.80915C 4.12392 4.98903 4.43322 5.1432 4.74251 5.27168C 5.07758 5.42586 5.43842 5.58003 5.79926 5.73421C 6.16011 5.88838 6.52095 6.09395 6.85602 6.29952C 7.19109 6.50509 7.50038 6.76205 7.7839 7.0447C 8.06742 7.35305 8.27361 7.6871 8.42826 8.07254C 8.66023 8.58646 8.73756 9.07468 8.73756 9.53721Z"/>
<path id="path7_fill" d="M 7.55582 8.30364C 7.55582 8.48351 7.55582 8.63769 7.53005 8.76617C 7.53005 8.86895 7.50427 8.97173 7.4785 9.07452C 7.45273 9.15161 7.45272 9.203 7.42695 9.28008C 7.3754 9.35717 7.32385 9.40856 7.2723 9.48565C 7.14343 9.58844 6.98878 9.69122 6.85991 9.76831C 6.65371 9.89679 6.42174 9.99957 6.164 10.0767C 5.88048 10.1794 5.62273 10.2308 5.33922 10.2822C 4.38556 10.4364 3.4319 10.3593 2.52979 10.0253C 1.98853 9.8197 1.52459 9.48565 1.13797 9.04882C 0.751353 8.5863 0.467833 8.04668 0.287411 7.48137C 0.0812151 6.78758 -0.0218806 6.06809 0.00389392 5.34861C -0.0218806 4.52634 0.10699 3.72976 0.364735 2.95889C 0.570931 2.34218 0.906001 1.77687 1.34417 1.28865C 1.75656 0.85182 2.24627 0.517773 2.81331 0.312205C 3.40613 0.0809421 4.05049 -0.0218413 4.66908 0.00385459C 4.9526 0.00385459 5.21034 0.0295503 5.46809 0.0809422C 5.72583 0.132334 5.98358 0.183726 6.21555 0.286509C 6.42174 0.363597 6.62794 0.466381 6.83414 0.569165C 6.96301 0.646253 7.11766 0.72334 7.22075 0.85182C 7.2723 0.903212 7.34963 0.9803 7.3754 1.03169C 7.40117 1.08308 7.42695 1.16017 7.45272 1.23726C 7.4785 1.34004 7.4785 1.44283 7.50427 1.54561C 7.50427 1.67409 7.50427 1.82827 7.50427 1.98244C 7.53005 2.2651 7.4785 2.54775 7.40118 2.83041C 7.32385 2.98458 7.24653 3.08737 7.14343 3.08737C 7.01456 3.08737 6.88569 3.03597 6.75681 2.93319C 6.62794 2.83041 6.47329 2.72762 6.29287 2.62484C 6.08667 2.49636 5.88048 2.39358 5.64851 2.31649C 5.36499 2.2137 5.05569 2.16231 4.7464 2.16231C 4.12781 2.13662 3.535 2.41927 3.19993 2.93319C 2.83909 3.44711 2.65866 4.21799 2.65866 5.22013C 2.65866 5.65696 2.71021 6.09379 2.78754 6.53062C 2.86486 6.86467 2.99373 7.19872 3.17415 7.48137C 3.3288 7.73833 3.56077 7.9182 3.84429 8.04668C 4.12781 8.17516 4.46288 8.25225 4.77218 8.22655C 5.08147 8.22655 5.41654 8.17516 5.70006 8.07238C 5.93203 7.96959 6.164 7.86681 6.3702 7.71263C 6.55062 7.58415 6.73104 7.45567 6.85991 7.35289C 6.93723 7.2758 7.06611 7.19872 7.19498 7.19872C 7.24653 7.19872 7.29808 7.22441 7.34963 7.25011C 7.40118 7.3015 7.42695 7.37859 7.45272 7.42998C 7.4785 7.55846 7.50427 7.66124 7.50427 7.78972C 7.5816 7.9439 7.58159 8.12377 7.55582 8.30364Z"/>
<path id="path8_fill" d="M 8.74767 13.9529C 8.74767 14.03 8.72189 14.0814 8.69612 14.1328C 8.64457 14.1842 8.56725 14.2355 8.48992 14.2612C 8.36105 14.3126 8.23218 14.3383 8.10331 14.3383C 7.89711 14.364 7.69092 14.364 7.48472 14.364C 7.27852 14.364 7.07233 14.364 6.84036 14.3383C 6.71148 14.3383 6.58261 14.3126 6.42796 14.2612C 6.35064 14.2355 6.27332 14.1842 6.22177 14.1328C 6.17022 14.0814 6.14444 14.03 6.17022 13.9529L 6.17022 8.68523C 6.17022 8.32548 6.14445 7.96574 6.06712 7.63169C 6.01557 7.40043 5.91247 7.16917 5.7836 6.9636C 5.65473 6.78373 5.50008 6.62955 5.29389 6.52677C 5.08769 6.42398 4.85572 6.37259 4.59797 6.37259C 4.23713 6.37259 3.87629 6.50107 3.59277 6.73233C 3.20615 7.04069 2.84531 7.40043 2.53601 7.78587L 2.53601 13.8244C 2.53601 13.8758 2.51024 13.9529 2.48447 14.0043C 2.43292 14.0557 2.35559 14.1071 2.27827 14.1328C 2.14939 14.1842 2.02052 14.2099 1.89165 14.2099C 1.68545 14.2355 1.47926 14.2355 1.27306 14.2355C 1.06687 14.2355 0.860672 14.2355 0.654476 14.2099C 0.525603 14.2099 0.396731 14.1842 0.267858 14.1328C 0.190535 14.1071 0.11321 14.0557 0.0616613 14.0043C 0.0101122 13.9529 -0.0156615 13.9015 0.010113 13.8244L 0.010113 0.436831C 0.010113 0.359743 0.0358868 0.308351 0.0616613 0.256959C 0.11321 0.179872 0.190535 0.154176 0.267858 0.12848C 0.396731 0.0770878 0.525603 0.0513919 0.654476 0.0513919C 0.860672 0 1.06687 0 1.27306 0C 1.47926 0 1.68545 0 1.89165 0.0256959C 2.02052 0.0256959 2.14939 0.0770878 2.27827 0.102784C 2.35559 0.12848 2.43292 0.179872 2.48447 0.231263C 2.53602 0.282655 2.53601 0.359743 2.53601 0.411135L 2.53601 5.42184C 2.92263 5.01071 3.38657 4.67666 3.90207 4.4454C 4.36601 4.23983 4.85572 4.11135 5.34543 4.11135C 5.8867 4.08565 6.42796 4.18844 6.91768 4.4197C 7.33007 4.59957 7.69091 4.90792 7.94866 5.26767C 8.23218 5.65311 8.4126 6.06424 8.5157 6.52677C 8.64457 7.09208 8.69612 7.68308 8.69612 8.24839L 8.74767 13.9529Z"/>
<path id="path9_fill" d="M 9.9013 5.09104C 9.9013 5.81052 9.7982 6.53001 9.592 7.2495C 9.41158 7.8662 9.07652 8.43151 8.63835 8.91973C 8.20019 9.40795 7.65892 9.7677 7.06611 9.99896C 6.34442 10.2559 5.59696 10.3844 4.8495 10.3844C 4.12781 10.4101 3.40613 10.2816 2.71022 10.0504C 2.14318 9.84478 1.62769 9.51074 1.18952 9.04821C 0.777131 8.58568 0.467837 8.04607 0.287415 7.45506C 0.081219 6.76127 -0.0218806 6.01609 0.00389392 5.2966C 0.00389392 4.57712 0.106987 3.83194 0.313183 3.13815C 0.493605 2.52144 0.828676 1.95613 1.26684 1.46791C 1.70501 1.00538 2.24628 0.619945 2.83909 0.388682C 3.535 0.131722 4.30824 0.00324257 5.0557 0.00324257C 5.77738 -0.0224534 6.52484 0.106026 7.22076 0.33729C 7.78779 0.542857 8.30328 0.876904 8.71567 1.31373C 9.12806 1.77626 9.43736 2.31588 9.592 2.90688C 9.82398 3.62637 9.92708 4.34586 9.9013 5.09104ZM 7.22076 5.19382C 7.22076 4.78269 7.19498 4.34586 7.11766 3.93472C 7.06611 3.57498 6.93723 3.24093 6.75681 2.93258C 6.60216 2.64992 6.34442 2.41866 6.0609 2.26448C 5.72583 2.08461 5.33921 2.00753 4.97837 2.03322C 4.61753 2.03322 4.28246 2.08461 3.94739 2.23879C 3.66387 2.36727 3.40613 2.59853 3.22571 2.85549C 3.01951 3.16384 2.89064 3.49789 2.81331 3.83194C 2.71022 4.26877 2.65867 4.7056 2.68444 5.14243C 2.68444 5.55356 2.71021 5.99039 2.78754 6.40153C 2.86486 6.76127 2.96796 7.09532 3.14838 7.40367C 3.30303 7.68633 3.56077 7.91759 3.84429 8.07176C 4.17936 8.22594 4.54021 8.30303 4.92683 8.30303C 5.28767 8.30303 5.62274 8.25164 5.95781 8.09746C 6.24133 7.96898 6.49907 7.73772 6.67949 7.48076C 6.88569 7.17241 7.01456 6.86406 7.09188 6.50431C 7.16921 6.06748 7.22076 5.63065 7.22076 5.19382Z"/>
<path id="path10_fill" d="M 2.53601 13.7859C 2.53601 13.8373 2.51024 13.9143 2.48446 13.9657C 2.43291 14.0171 2.35559 14.0685 2.27827 14.0942C 2.1494 14.1456 2.02052 14.1713 1.89165 14.1713C 1.47926 14.197 1.06687 14.197 0.654477 14.1713C 0.525605 14.1713 0.396732 14.1456 0.26786 14.0942C 0.190536 14.0685 0.113208 14.0171 0.0616589 13.9657C 0.0101099 13.9143 -0.0156599 13.863 0.0101146 13.7859L 0.0101146 0.423983C 0.0101146 0.346895 0.0358844 0.295503 0.0616589 0.244111C 0.113208 0.167024 0.190536 0.141328 0.26786 0.115632C 0.396732 0.0642398 0.525598 0.0385439 0.680245 0.0385439C 1.09264 -0.012848 1.50503 -0.012848 1.91743 0.0385439C 2.0463 0.0385439 2.17517 0.0899358 2.30404 0.115632C 2.38137 0.141328 2.45869 0.19272 2.51024 0.244111C 2.56179 0.295503 2.56179 0.372591 2.56179 0.423983L 2.53601 13.7859Z"/>
<path id="path11_fill" d="M 8.0932 9.84154C 8.0932 9.91863 8.06742 10.0214 7.9901 10.0728C 7.887 10.1499 7.7839 10.1756 7.6808 10.2013C 7.47461 10.227 7.26841 10.2527 7.03644 10.227C 6.83024 10.227 6.59827 10.227 6.39208 10.2013C 6.28898 10.2013 6.18588 10.1499 6.10856 10.0728C 6.05701 10.0214 6.03124 9.91863 6.03124 9.84154L 6.03124 9.09636C 5.67039 9.4818 5.258 9.81585 4.79405 10.0471C 4.30434 10.2784 3.76307 10.3812 3.24758 10.3812C 2.80942 10.3812 2.37125 10.3298 1.95886 10.2013C 1.59802 10.0728 1.23717 9.89293 0.927879 9.63597C 0.644359 9.37902 0.412395 9.07066 0.257748 8.71092C 0.0773266 8.29979 3.1463e-06 7.86296 3.1463e-06 7.40043C 3.1463e-06 6.91221 0.103096 6.42398 0.309292 6.01285C 0.515488 5.60171 0.824783 5.26767 1.2114 5.0364C 1.67534 4.75375 2.16506 4.57388 2.70633 4.47109C 3.40224 4.34261 4.07237 4.26552 4.76829 4.29122L 5.51575 4.29122L 5.51575 3.72591C 5.51575 3.46895 5.48997 3.21199 5.43842 2.95503C 5.38687 2.74946 5.28378 2.56959 5.1549 2.41542C 5.00026 2.26124 4.81983 2.15846 4.61364 2.10707C 4.33012 2.02998 4.07237 2.00428 3.78885 2.00428C 3.40223 2.00428 3.01562 2.05567 2.629 2.15846C 2.3197 2.23555 2.01041 2.33833 1.72689 2.46681C 1.46915 2.56959 1.23717 2.69807 1.05675 2.77516C 0.927879 2.85225 0.773237 2.90364 0.61859 2.92934C 0.541266 2.92934 0.463938 2.90364 0.412389 2.85225C 0.335065 2.80086 0.309297 2.72377 0.257748 2.64668C 0.206199 2.5439 0.180418 2.44111 0.154644 2.31263C 0.128869 2.15846 0.128876 2.02998 0.128876 1.8758C 0.128876 1.69593 0.128871 1.54176 0.18042 1.36188C 0.206194 1.2334 0.283523 1.13062 0.386621 1.02784C 0.541268 0.899358 0.721689 0.770878 0.902111 0.69379C 1.18563 0.56531 1.46915 0.436831 1.75267 0.359743C 2.08773 0.256959 2.44858 0.154176 2.80942 0.102784C 3.19604 0.025696 3.60843 1.96044e-07 3.99505 1.96044e-07C 4.61364 1.96044e-07 5.258 0.0513919 5.85081 0.205567C 6.31475 0.334047 6.75292 0.539615 7.11376 0.847966C 7.44883 1.15632 7.70658 1.54176 7.83545 1.97859C 7.9901 2.5182 8.06742 3.05782 8.06742 3.62313L 8.0932 9.84154ZM 5.74771 5.80728L 4.76829 5.80728C 4.40744 5.80728 4.0466 5.83298 3.68575 5.91006C 3.40223 5.96146 3.11871 6.08994 2.86097 6.24411C 2.80942 6.2955 2.70632 6.37259 2.68055 6.42398C 2.50013 6.65525 2.42281 6.9379 2.42281 7.22056C 2.39703 7.5546 2.55168 7.88865 2.78365 8.11991C 3.06717 8.35118 3.45378 8.47966 3.81463 8.45396C 4.17547 8.45396 4.51054 8.35118 4.81983 8.17131C 5.18067 7.94004 5.48997 7.65739 5.74771 7.34904L 5.74771 5.80728Z"/>
<path id="path12_fill" d="M 5.8867 1.43897C 5.8867 1.69593 5.8867 1.9015 5.86092 2.05567C 5.86092 2.18415 5.83515 2.31263 5.80938 2.41542C 5.7836 2.49251 5.75782 2.5439 5.70627 2.59529C 5.65472 2.62099 5.60318 2.64668 5.52586 2.64668C 5.47431 2.64668 5.39698 2.62098 5.34543 2.62098C 5.26811 2.59529 5.19079 2.56959 5.11346 2.5439C 5.01036 2.5182 4.93304 2.49251 4.82994 2.46681C 4.72684 2.44111 4.59797 2.44111 4.49488 2.44111C 4.34023 2.44111 4.18558 2.46681 4.05671 2.5182C 3.90206 2.59529 3.74742 2.67238 3.59277 2.80086C 3.41235 2.95503 3.2577 3.10921 3.10306 3.28908C 2.89686 3.54604 2.53601 4.05996 2.53601 4.05996L 2.53601 9.81585C 2.53601 9.89293 2.51024 9.94433 2.48446 9.99572C 2.43291 10.0471 2.35559 10.0985 2.27827 10.1242C 2.1494 10.1756 2.02052 10.2013 1.89165 10.2013C 1.68545 10.227 1.47926 10.227 1.27306 10.227C 1.06687 10.227 0.860673 10.227 0.654477 10.2013C 0.525605 10.2013 0.396732 10.1756 0.26786 10.1242C 0.190536 10.0985 0.113208 10.0471 0.0616589 9.99572C 0.0101099 9.94433 -0.0156599 9.89293 0.0101146 9.81585L 0.0101146 0.591006C 0.0101146 0.513919 0.0358844 0.462527 0.0616589 0.411135C 0.113208 0.334047 0.16476 0.308351 0.242084 0.282655C 0.370956 0.231264 0.474052 0.205567 0.602925 0.205567C 0.783347 0.179871 0.963771 0.179871 1.16997 0.179871C 1.35039 0.179871 1.55658 0.179871 1.737 0.205567C 1.86587 0.231263 1.96897 0.25696 2.09784 0.282655C 2.17517 0.308351 2.22672 0.359743 2.27827 0.411135C 2.30404 0.462527 2.32982 0.539615 2.32982 0.591006L 2.32982 1.72163C 2.32982 1.72163 2.66488 1.13062 2.89685 0.873662C 3.07728 0.668094 3.28347 0.488223 3.51544 0.334047C 3.69586 0.205567 3.90206 0.12848 4.10826 0.0770877C 4.28868 0.0256958 4.49487 9.80222e-08 4.67529 9.80222e-08C 4.75262 9.80222e-08 4.85572 1.95578e-07 4.95881 0.0256961C 5.06191 0.0256961 5.16501 0.0513918 5.26811 0.0770877C 5.37121 0.102784 5.47431 0.12848 5.55163 0.154176C 5.62896 0.179872 5.6805 0.205568 5.73205 0.256959C 5.75782 0.282655 5.7836 0.334047 5.80938 0.359743C 5.83515 0.411135 5.83515 0.462527 5.86092 0.539615C 5.8867 0.642399 5.8867 0.745182 5.8867 0.873662C 5.8867 1.00214 5.8867 1.20771 5.8867 1.43897Z"/>
</defs>
</svg>
